<?xml version="1.0" encoding="UTF-8"?>
<svg xmlns="http://www.w3.org/2000/svg" width="1600" height="1067" viewBox="0 0 1600 1067" role="img" aria-label="15 Yıllık Tecrübe">
  <defs>
    <linearGradient id="g" x1="0" y1="0" x2="1" y2="1">
      <stop offset="0%" stop-color="#f7fff4"/>
      <stop offset="100%" stop-color="#fff0e6"/>
    </linearGradient>
    <filter id="s" x="-20%" y="-20%" width="140%" height="140%">
      <feDropShadow dx="0" dy="18" stdDeviation="18" flood-color="#000000" flood-opacity="0.12"/>
    </filter>
  </defs>
  <rect width="1600" height="1067" fill="url(#g)"/>
  <g filter="url(#s)">
    <rect x="140" y="140" rx="44" ry="44" width="1320" height="787" fill="rgba(255,255,255,0.52)"/>
    
        <g transform="translate(650,330) rotate(-18 150 250)">
          <rect x="140" y="320" width="22" height="220" rx="11" fill="rgba(255,255,255,0.8)"/>
          <path d="M150,80 C240,90 290,170 260,240 C230,300 180,330 150,320 C120,330 70,300 40,240 C10,170 60,90 150,80 Z" fill="none" stroke="rgba(255,255,255,0.78)" stroke-width="20" stroke-linecap="round"/>
          <path d="M80,150 C140,190 160,230 150,320" fill="none" stroke="rgba(255,255,255,0.6)" stroke-width="14" stroke-linecap="round"/>
          <path d="M220,150 C160,190 140,230 150,320" fill="none" stroke="rgba(255,255,255,0.6)" stroke-width="14" stroke-linecap="round"/>
        </g>
        
    <text x="800" y="250" text-anchor="middle" font-family="Inter, system-ui, -apple-system, Segoe UI, Roboto, Arial" font-size="66" fill="#1f2a44" font-weight="800">15 Yıllık Tecrübe</text>
    <text x="800" y="315" text-anchor="middle" font-family="Inter, system-ui, -apple-system, Segoe UI, Roboto, Arial" font-size="26" fill="#1f2a44" opacity="0.78">Butik pastacılıkta uzman kadro</text>
  </g>
</svg>