<?xml version="1.0" encoding="UTF-8"?>
<svg xmlns="http://www.w3.org/2000/svg" width="1600" height="1067" viewBox="0 0 1600 1067" role="img" aria-label="Atölyeler">
  <defs>
    <linearGradient id="g" x1="0" y1="0" x2="1" y2="1">
      <stop offset="0%" stop-color="#fffdf2"/>
      <stop offset="100%" stop-color="#f0f4ff"/>
    </linearGradient>
    <filter id="s" x="-20%" y="-20%" width="140%" height="140%">
      <feDropShadow dx="0" dy="18" stdDeviation="18" flood-color="#000000" flood-opacity="0.12"/>
    </filter>
  </defs>
  <rect width="1600" height="1067" fill="url(#g)"/>
  <g filter="url(#s)">
    <rect x="140" y="140" rx="44" ry="44" width="1320" height="787" fill="rgba(255,255,255,0.52)"/>
    
        <g transform="translate(620,355)">
          <path d="M80,210 C50,160 60,110 120,90 C130,40 180,20 220,45 C250,10 310,15 330,55 C390,55 430,95 410,150 C470,170 470,230 420,260 C380,300 120,300 80,260 C20,230 20,170 80,210 Z" fill="rgba(255,255,255,0.75)"/>
          <path d="M150,300 L350,300 L310,520 L190,520 Z" fill="rgba(255,255,255,0.72)"/>
          <path d="M180,360 L320,360" stroke="rgba(15,23,42,0.14)" stroke-width="10" stroke-linecap="round"/>
          <path d="M170,420 L330,420" stroke="rgba(15,23,42,0.14)" stroke-width="10" stroke-linecap="round"/>
        </g>
        
    <text x="800" y="250" text-anchor="middle" font-family="Inter, system-ui, -apple-system, Segoe UI, Roboto, Arial" font-size="66" fill="#1f2a44" font-weight="800">Atölyeler</text>
    <text x="800" y="315" text-anchor="middle" font-family="Inter, system-ui, -apple-system, Segoe UI, Roboto, Arial" font-size="26" fill="#1f2a44" opacity="0.78">Macaron • Cupcake • Tasarım Pastalar</text>
  </g>
</svg>