<?xml version="1.0" encoding="UTF-8"?>
<svg xmlns="http://www.w3.org/2000/svg" width="1600" height="1067" viewBox="0 0 1600 1067" role="img" aria-label="Butiktatli">
  <defs>
    <linearGradient id="g" x1="0" y1="0" x2="1" y2="1">
      <stop offset="0%" stop-color="#fff1f7"/>
      <stop offset="100%" stop-color="#ffe9d6"/>
    </linearGradient>
    <filter id="s" x="-20%" y="-20%" width="140%" height="140%">
      <feDropShadow dx="0" dy="18" stdDeviation="18" flood-color="#000000" flood-opacity="0.12"/>
    </filter>
  </defs>
  <rect width="1600" height="1067" fill="url(#g)"/>
  <g filter="url(#s)">
    <rect x="140" y="140" rx="44" ry="44" width="1320" height="787" fill="rgba(255,255,255,0.52)"/>
    
        <g transform="translate(560,340)">
          <rect x="110" y="260" width="380" height="210" rx="60" fill="rgba(255,255,255,0.74)"/>
          <rect x="160" y="140" width="280" height="150" rx="55" fill="rgba(255,255,255,0.74)"/>
          <rect x="210" y="60" width="180" height="110" rx="50" fill="rgba(255,255,255,0.74)"/>
          <circle cx="300" cy="90" r="18" fill="rgba(255,255,255,0.92)"/>
          <rect x="292" y="10" width="16" height="70" rx="8" fill="rgba(255,255,255,0.92)"/>
          <path d="M300,-12 C312,2 316,12 300,24 C284,12 288,2 300,-12 Z" fill="rgba(255,255,255,0.92)"/>
        </g>
        
    <text x="800" y="250" text-anchor="middle" font-family="Inter, system-ui, -apple-system, Segoe UI, Roboto, Arial" font-size="66" fill="#1f2a44" font-weight="800">Butiktatli</text>
    <text x="800" y="315" text-anchor="middle" font-family="Inter, system-ui, -apple-system, Segoe UI, Roboto, Arial" font-size="26" fill="#1f2a44" opacity="0.78">Boutique Dessert Shop • Eğitim & Satış</text>
  </g>
</svg>