<?xml version="1.0" encoding="UTF-8"?>
<svg xmlns="http://www.w3.org/2000/svg" width="1600" height="1067" viewBox="0 0 1600 1067" role="img" aria-label="Galeri 04 placeholder">
  <defs>
    <linearGradient id="g" x1="0" y1="0" x2="1" y2="1">
      <stop offset="0%" stop-color="#f6f2ff"/>
      <stop offset="100%" stop-color="#fff0f5"/>
    </linearGradient>
    <filter id="s" x="-20%" y="-20%" width="140%" height="140%">
      <feDropShadow dx="0" dy="18" stdDeviation="18" flood-color="#000000" flood-opacity="0.15"/>
    </filter>
  </defs>
  <rect width="1600" height="1067" fill="url(#g)"/>
  <g filter="url(#s)">
    <rect x="150" y="170" rx="40" ry="40" width="1300" height="720" fill="rgba(255,255,255,0.55)"/>
    <g transform="translate(310,320)">
      <!-- Simple cake icon -->
      <rect x="0" y="210" width="980" height="260" rx="60" fill="rgba(255,255,255,0.7)"/>
      <rect x="110" y="90" width="760" height="170" rx="55" fill="rgba(255,255,255,0.7)"/>
      <rect x="240" y="0" width="520" height="120" rx="50" fill="rgba(255,255,255,0.7)"/>
      <circle cx="500" cy="38" r="22" fill="rgba(255,255,255,0.9)"/>
      <rect x="492" y="-52" width="16" height="72" rx="8" fill="rgba(255,255,255,0.9)"/>
      <path d="M500,-78 C512,-62 516,-52 500,-40 C484,-52 488,-62 500,-78 Z" fill="rgba(255,255,255,0.9)"/>
    </g>
    <text x="800" y="280" text-anchor="middle" font-family="Inter, system-ui, -apple-system, Segoe UI, Roboto, Arial" font-size="64" fill="#24324a" font-weight="700">Galeri 04</text>
    <text x="800" y="352" text-anchor="middle" font-family="Inter, system-ui, -apple-system, Segoe UI, Roboto, Arial" font-size="26" fill="#24324a" opacity="0.75">Replace this image in /img</text>
  </g>
</svg>
